<mxfile host="Electron" agent="Mozilla/5.0 (X11; Linux x86_64) AppleWebKit/537.36 (KHTML, like Gecko) draw.io/26.1.1 Chrome/138.0.7204.157 Electron/37.2.4 Safari/537.36" version="26.1.1">
  <diagram name="Page-1" id="z0PvlEvgQl1M6Hcm4Jm7">
    <mxGraphModel dx="1414" dy="845" grid="1" gridSize="10" guides="1" tooltips="1" connect="1" arrows="1" fold="1" page="1" pageScale="1" pageWidth="850" pageHeight="1100" math="0" shadow="0">
      <root>
        <mxCell id="0" />
        <mxCell id="1" parent="0" />
        <mxCell id="XR5XQWyATy7PYwPTTgFC-11" value="" style="text;html=1;align=center;verticalAlign=middle;whiteSpace=wrap;rounded=0;" vertex="1" parent="1">
          <mxGeometry x="210" y="130" width="60" height="30" as="geometry" />
        </mxCell>
        <mxCell id="XR5XQWyATy7PYwPTTgFC-16" style="edgeStyle=orthogonalEdgeStyle;rounded=0;orthogonalLoop=1;jettySize=auto;html=1;exitX=1;exitY=0.5;exitDx=0;exitDy=0;" edge="1" parent="1" source="XR5XQWyATy7PYwPTTgFC-13" target="XR5XQWyATy7PYwPTTgFC-15">
          <mxGeometry relative="1" as="geometry" />
        </mxCell>
        <mxCell id="XR5XQWyATy7PYwPTTgFC-25" style="edgeStyle=orthogonalEdgeStyle;rounded=0;orthogonalLoop=1;jettySize=auto;html=1;exitX=0.5;exitY=1;exitDx=0;exitDy=0;" edge="1" parent="1" source="XR5XQWyATy7PYwPTTgFC-13" target="XR5XQWyATy7PYwPTTgFC-14">
          <mxGeometry relative="1" as="geometry" />
        </mxCell>
        <mxCell id="XR5XQWyATy7PYwPTTgFC-13" value="Client" style="ellipse;whiteSpace=wrap;html=1;" vertex="1" parent="1">
          <mxGeometry x="230" y="90" width="120" height="80" as="geometry" />
        </mxCell>
        <mxCell id="XR5XQWyATy7PYwPTTgFC-23" style="edgeStyle=orthogonalEdgeStyle;rounded=0;orthogonalLoop=1;jettySize=auto;html=1;exitX=1;exitY=0.5;exitDx=0;exitDy=0;" edge="1" parent="1" source="XR5XQWyATy7PYwPTTgFC-14" target="XR5XQWyATy7PYwPTTgFC-18">
          <mxGeometry relative="1" as="geometry" />
        </mxCell>
        <mxCell id="XR5XQWyATy7PYwPTTgFC-14" value="Server" style="ellipse;whiteSpace=wrap;html=1;" vertex="1" parent="1">
          <mxGeometry x="230" y="410" width="120" height="80" as="geometry" />
        </mxCell>
        <mxCell id="XR5XQWyATy7PYwPTTgFC-15" value="App Data" style="whiteSpace=wrap;html=1;aspect=fixed;" vertex="1" parent="1">
          <mxGeometry x="550" y="90" width="80" height="80" as="geometry" />
        </mxCell>
        <mxCell id="XR5XQWyATy7PYwPTTgFC-17" value="Przechowuje kanały RSS" style="text;html=1;align=center;verticalAlign=middle;resizable=0;points=[];autosize=1;strokeColor=none;fillColor=none;" vertex="1" parent="1">
          <mxGeometry x="370" y="100" width="160" height="30" as="geometry" />
        </mxCell>
        <mxCell id="XR5XQWyATy7PYwPTTgFC-18" value="Konsument RSS" style="ellipse;whiteSpace=wrap;html=1;" vertex="1" parent="1">
          <mxGeometry x="530" y="410" width="120" height="80" as="geometry" />
        </mxCell>
        <mxCell id="XR5XQWyATy7PYwPTTgFC-24" value="Hostuje kanały RSS" style="text;html=1;align=center;verticalAlign=middle;resizable=0;points=[];autosize=1;strokeColor=none;fillColor=none;" vertex="1" parent="1">
          <mxGeometry x="380" y="420" width="130" height="30" as="geometry" />
        </mxCell>
        <mxCell id="XR5XQWyATy7PYwPTTgFC-26" value="Synchronizuje kanały" style="text;html=1;align=center;verticalAlign=middle;resizable=0;points=[];autosize=1;strokeColor=none;fillColor=none;" vertex="1" parent="1">
          <mxGeometry x="285" y="260" width="140" height="30" as="geometry" />
        </mxCell>
        <mxCell id="XR5XQWyATy7PYwPTTgFC-31" style="edgeStyle=orthogonalEdgeStyle;rounded=0;orthogonalLoop=1;jettySize=auto;html=1;exitX=1;exitY=0.5;exitDx=0;exitDy=0;entryX=0;entryY=0.5;entryDx=0;entryDy=0;" edge="1" parent="1" source="XR5XQWyATy7PYwPTTgFC-27" target="XR5XQWyATy7PYwPTTgFC-13">
          <mxGeometry relative="1" as="geometry" />
        </mxCell>
        <mxCell id="XR5XQWyATy7PYwPTTgFC-27" value="Użytkownik" style="shape=parallelogram;perimeter=parallelogramPerimeter;whiteSpace=wrap;html=1;fixedSize=1;" vertex="1" parent="1">
          <mxGeometry x="20" y="100" width="120" height="60" as="geometry" />
        </mxCell>
        <mxCell id="XR5XQWyATy7PYwPTTgFC-29" value="Interaguje" style="text;html=1;align=center;verticalAlign=middle;resizable=0;points=[];autosize=1;strokeColor=none;fillColor=none;" vertex="1" parent="1">
          <mxGeometry x="140" y="100" width="80" height="30" as="geometry" />
        </mxCell>
      </root>
    </mxGraphModel>
  </diagram>
</mxfile>
